# xmcd CD database file generated by Grip 2.95
# 
# Track frame offsets:
#       150
#       15765
#       34815
#       77996
#       96226
#       128174
#       216183
#       225904
#       275336
# 
# Disc length: 4385 seconds
# 
# Revision: 3
# Processed by: cddbd v1.4b41PL1 Copyright (c) Steve Scherf et al.
# Submitted via: Grip 2.95
# 
DISCID=69111f09
DTITLE=Yonder Mtn String Band - 8/8/2000, Terra Alta, WV 
DYEAR=1900
DGENRE=
TTITLE0=If I Lose
TTITLE1=Going Across The Sea
TTITLE2=New Horizons
TTITLE3=The Mental Breakdown
TTITLE4=Yes She Do (No She Dont)
TTITLE5=Oklahoma, Salt Creek, Midnight, Oklahoma
TTITLE6=Banter
TTITLE7=Shady Grove,Wheel Hoss,Shady Grove
TTITLE8=On the Run,Crazy Train, On the Run
EXTD=
EXTT0=
EXTT1=
EXTT2=
EXTT3=
EXTT4=
EXTT5=
EXTT6=
EXTT7=
EXTT8=
PLAYORDER=
